<svg width="100" height="100" viewBox="0 0 100 100" fill="none" xmlns="http://www.w3.org/2000/svg">
<g id="Frame" clip-path="url(#clip0_50_603)">
<g id="Group">
<path id="Vector" d="M49.1951 41.561C49.1951 36.17 44.4877 33.2329 39.8201 33.2329C35.2342 33.2329 30.7273 36.0495 30.7273 40.9575C30.7273 43.4927 31.9352 44.2169 33.5441 44.2169C35.5957 44.2169 36.843 43.0899 36.843 41.9233C36.843 39.7101 38.2516 38.906 39.8605 38.906C42.1135 38.906 42.9184 40.4753 42.9184 41.7624C42.9184 46.8718 30.2451 50.4929 30.2451 56.8099V60.7122C30.2451 61.8788 31.8543 62.6433 32.9811 62.6433H47.3037C48.3094 62.6433 49.1951 61.3159 49.1951 59.8679C49.1951 58.4188 48.3094 57.1716 47.3037 57.1716H36.7631V56.8099C36.7631 53.1485 49.1951 50.2923 49.1951 41.561Z" fill="#AD976E"/>
<path id="Vector_2" d="M63.8801 62.6435C65.4497 62.6435 67.0182 61.9997 67.0182 60.7126V56.4478H68.7487C69.7135 56.4478 70.6795 54.9997 70.6795 53.5509C70.6795 52.1028 70.0364 50.654 68.7485 50.654H67.018V47.838C67.018 46.5104 65.4497 45.9466 63.8801 45.9466C62.3118 45.9466 60.7422 46.5104 60.7422 47.838V50.654H57.2823L64.4036 36.3718C64.5241 36.0894 64.6042 35.8483 64.6042 35.6073C64.6042 34.1585 62.5528 33.2329 61.467 33.2329C60.4608 33.2329 59.4543 33.6755 58.8508 34.8429L49.5575 53.0679C48.7665 54.5183 49.4385 56.4478 51.3276 56.4478H60.7422V60.7126C60.7422 61.9997 62.3116 62.6435 63.8801 62.6435Z" fill="#AD976E"/>
<path id="Vector_3" d="M96.0938 46.0938C93.9361 46.0938 92.1875 47.8424 92.1875 50C92.1875 73.3162 73.3193 92.1875 50 92.1875C26.6838 92.1875 7.8125 73.3193 7.8125 50C7.8125 26.6838 26.6807 7.8125 50 7.8125C58.5527 7.8125 66.5596 10.3438 73.332 14.8438H69.0398C66.8824 14.8438 65.1336 16.5924 65.1336 18.75C65.1336 20.9076 66.8824 22.6562 69.0398 22.6562H83.8836C86.0404 22.6562 87.7898 20.8801 87.7898 18.75V3.90625C87.7898 1.74863 86.0404 0 83.8836 0C81.7262 0 79.9773 1.74863 79.9773 3.90625V9.97461C71.7156 3.775 61.3312 0 50 0C22.3664 0 0 22.3625 0 50C0 77.6336 22.3625 100 50 100C77.6336 100 100 77.6375 100 50C100 47.8424 98.2514 46.0938 96.0938 46.0938Z" fill="#AD976E"/>
</g>
</g>
<defs>
<clipPath id="clip0_50_603">
<rect width="100" height="100" fill="white"/>
</clipPath>
</defs>
</svg>
