<svg width="110" height="135" viewBox="0 0 110 135" fill="none" xmlns="http://www.w3.org/2000/svg">
<g id="Asset 7" opacity="0.4" clip-path="url(#clip0_50_435)">
<g id="Layer 2">
<g id="Layer 1">
<path id="Vector" d="M54.978 74.2462C54.978 69.3869 56.9042 64.7266 60.3329 61.2905C63.7616 57.8545 68.4118 55.9241 73.2607 55.9241C76.0996 55.9174 78.9009 56.5748 81.4415 57.8441C83.9822 59.1134 86.1922 60.9595 87.8955 63.2355" stroke="#AD976E" stroke-width="1.93603" stroke-linecap="round" stroke-linejoin="round"/>
<path id="Vector_2" d="M22.0613 63.2355C23.767 60.962 25.9774 59.1177 28.5175 57.8487C31.0577 56.5796 33.8578 55.9207 36.6961 55.9241C41.545 55.9241 46.1952 57.8544 49.6239 61.2905C53.0526 64.7265 54.9788 69.3868 54.9788 74.2461" stroke="#AD976E" stroke-width="1.93603" stroke-linecap="round" stroke-linejoin="round"/>
<path id="Vector_3" d="M54.978 65.2814V46.7418C54.978 43.1225 55.6908 39.5387 57.0755 36.196C58.4602 32.8533 60.4896 29.8173 63.0474 27.2621C65.6052 24.7069 68.641 22.6827 71.9809 21.3056C75.3208 19.9285 78.8991 19.2255 82.5106 19.237C87.7912 19.2427 92.9584 20.7726 97.3943 23.6436C101.83 26.5146 105.347 30.6053 107.524 35.4265" stroke="#AD976E" stroke-width="1.93603" stroke-linecap="round" stroke-linejoin="round"/>
<path id="Vector_4" d="M109.088 9.87969C103.122 4.10643 95.1465 0.890471 86.8534 0.914501C78.3881 0.914501 70.2694 4.2846 64.2835 10.2834C58.2976 16.2822 54.9348 24.4183 54.9348 32.9019C54.9118 24.4179 51.5356 16.2885 45.5453 10.2935C39.555 4.29838 31.4385 0.925982 22.9727 0.914501C14.775 0.860775 6.87273 3.97861 0.911865 9.61856" stroke="#AD976E" stroke-width="1.93603" stroke-linecap="round" stroke-linejoin="round"/>
<path id="Vector_5" d="M2.51904 35.4264C4.69635 30.6052 8.21323 26.5145 12.6491 23.6435C17.0851 20.7724 22.2523 19.2426 27.5329 19.2368C31.1371 19.2368 34.706 19.9483 38.0359 21.3305C41.3657 22.7127 44.3913 24.7387 46.9399 27.2928C49.4885 29.8469 51.5101 32.879 52.8894 36.216C54.2687 39.553 54.9786 43.1297 54.9786 46.7417V62.6266C54.9786 55.9897 57.6094 49.6247 62.2922 44.9318C66.9751 40.2389 73.3264 37.6024 79.949 37.6024C84.1543 37.5985 88.2928 38.6572 91.9817 40.6806C95.6707 42.704 98.7911 45.6268 101.054 49.1788" stroke="#AD976E" stroke-width="1.93603" stroke-linecap="round" stroke-linejoin="round"/>
<path id="Vector_6" d="M54.9787 134.087V62.8003C54.9787 56.1173 52.3296 49.708 47.6141 44.9824C42.8987 40.2569 36.5032 37.6021 29.8346 37.6021C25.7132 37.6015 21.6544 38.6127 18.0131 40.5473C14.3718 42.4819 11.2588 45.2809 8.94629 48.6997" stroke="#AD976E" stroke-width="1.93603" stroke-linecap="round" stroke-linejoin="round"/>
</g>
</g>
</g>
<defs>
<clipPath id="clip0_50_435">
<rect width="110" height="135" fill="white"/>
</clipPath>
</defs>
</svg>
