<svg width="171" height="210" viewBox="0 0 171 210" fill="none" xmlns="http://www.w3.org/2000/svg">
<g id="Asset 3" opacity="0.6" clip-path="url(#clip0_50_417)">
<g id="Layer 2">
<g id="Layer 1">
<path id="Vector" d="M85.4653 115.494C85.4653 107.935 88.4597 100.686 93.7897 95.3407C99.1197 89.9958 106.349 86.993 113.887 86.993C118.3 86.9825 122.654 88.0051 126.604 89.9796C130.554 91.9541 133.989 94.8258 136.637 98.3663" stroke="#AD976E" stroke-width="2.9929" stroke-linecap="round" stroke-linejoin="round"/>
<path id="Vector_2" d="M34.2949 98.3662C36.9465 94.8297 40.3827 91.9608 44.3315 89.9867C48.2803 88.0127 52.6332 86.9877 57.0454 86.9929C64.5832 86.9929 71.8122 89.9957 77.1423 95.3407C82.4723 100.686 85.4666 107.935 85.4666 115.494" stroke="#AD976E" stroke-width="2.9929" stroke-linecap="round" stroke-linejoin="round"/>
<path id="Vector_3" d="M85.4653 101.549V72.7093C85.4653 67.0793 86.5733 61.5046 88.7259 56.3048C90.8785 51.105 94.0333 46.3824 98.0095 42.4076C101.986 38.4328 106.705 35.2841 111.897 33.1419C117.089 30.9998 122.652 29.9062 128.266 29.924C136.475 29.933 144.508 32.3128 151.403 36.7788C158.299 41.2449 163.766 47.6082 167.151 55.1078" stroke="#AD976E" stroke-width="2.9929" stroke-linecap="round" stroke-linejoin="round"/>
<path id="Vector_4" d="M169.582 15.3683C160.308 6.38768 147.909 1.38507 135.017 1.42245C121.858 1.42245 109.237 6.66482 99.9314 15.9963C90.626 25.3278 85.3983 37.984 85.3983 51.1807C85.3626 37.9833 80.1141 25.3376 70.8019 16.0119C61.4897 6.68626 48.8723 1.44031 35.7117 1.42245C22.9681 1.33887 10.6837 6.18885 1.41724 14.9621" stroke="#AD976E" stroke-width="2.9929" stroke-linecap="round" stroke-linejoin="round"/>
<path id="Vector_5" d="M3.91577 55.1076C7.30049 47.6079 12.7676 41.2446 19.6635 36.7786C26.5593 32.3125 34.592 29.9328 42.8009 29.9238C48.4038 29.9238 53.9519 31.0305 59.1283 33.1807C64.3047 35.3308 69.0082 38.4824 72.97 42.4554C76.9319 46.4283 80.0746 51.145 82.2188 56.3359C84.3629 61.5269 85.4665 67.0905 85.4665 72.7091V97.419C85.4665 87.095 89.5562 77.1939 96.8359 69.8938C104.116 62.5937 113.989 58.4925 124.284 58.4925C130.822 58.4864 137.255 60.1333 142.99 63.2808C148.724 66.4283 153.575 70.9749 157.093 76.5002" stroke="#AD976E" stroke-width="2.9929" stroke-linecap="round" stroke-linejoin="round"/>
<path id="Vector_6" d="M85.4666 208.579V97.6895C85.4666 87.2937 81.3485 77.3237 74.0181 69.9728C66.6878 62.6219 56.7457 58.4922 46.379 58.4922C39.9721 58.4913 33.6626 60.0643 28.002 63.0737C22.3414 66.083 17.5021 70.4371 13.9072 75.7552" stroke="#AD976E" stroke-width="2.9929" stroke-linecap="round" stroke-linejoin="round"/>
</g>
</g>
</g>
<defs>
<clipPath id="clip0_50_417">
<rect width="171" height="210" fill="white"/>
</clipPath>
</defs>
</svg>
