<svg width="229" height="281" viewBox="0 0 229 281" fill="none" xmlns="http://www.w3.org/2000/svg">
<g clip-path="url(#clip0_50_408)">
<path d="M114.454 154.541C114.454 144.427 118.464 134.727 125.601 127.574C132.739 120.422 142.42 116.404 152.515 116.404C158.425 116.39 164.257 117.759 169.546 120.401C174.835 123.043 179.436 126.885 182.982 131.623" stroke="#AD976E" stroke-width="3.99054" stroke-linecap="round" stroke-linejoin="round"/>
<path d="M45.9272 131.623C49.4781 126.891 54.0799 123.052 59.368 120.41C64.6562 117.769 70.4855 116.397 76.3943 116.404C86.4887 116.404 96.1698 120.422 103.308 127.574C110.445 134.726 114.455 144.427 114.455 154.541" stroke="#AD976E" stroke-width="3.99054" stroke-linecap="round" stroke-linejoin="round"/>
<path d="M114.454 135.881V97.2915C114.454 89.758 115.937 82.2985 118.82 75.3407C121.703 68.3829 125.928 62.0636 131.253 56.745C136.577 51.4264 142.897 47.2131 149.851 44.3467C156.804 41.4802 164.253 40.017 171.771 40.0408C182.765 40.0528 193.522 43.2371 202.757 49.2131C211.991 55.1891 219.313 63.7038 223.846 73.739" stroke="#AD976E" stroke-width="3.99054" stroke-linecap="round" stroke-linejoin="round"/>
<path d="M227.101 20.5641C214.682 8.54722 198.077 1.85326 180.813 1.90328C163.189 1.90328 146.288 8.91806 133.826 21.4044C121.365 33.8908 114.364 50.826 114.364 68.4844C114.316 50.825 107.287 33.904 94.8166 21.4254C82.3458 8.94675 65.4488 1.92717 47.8245 1.90328C30.7585 1.79145 14.3074 8.28116 1.89795 20.0206" stroke="#AD976E" stroke-width="3.99054" stroke-linecap="round" stroke-linejoin="round"/>
<path d="M5.2439 73.7387C9.77665 63.7035 17.0982 55.1888 26.3329 49.2128C35.5677 43.2369 46.3249 40.0525 57.3181 40.0405C64.8215 40.0405 72.2513 41.5214 79.1835 44.3985C86.1157 47.2756 92.4144 51.4927 97.7201 56.8089C103.026 62.1251 107.234 68.4364 110.106 75.3823C112.977 82.3283 114.455 89.773 114.455 97.2913V130.355C114.455 116.541 119.932 103.292 129.681 93.5241C139.43 83.7558 152.652 78.2681 166.439 78.2681C175.194 78.2599 183.809 80.4636 191.489 84.6752C199.169 88.8869 205.665 94.9707 210.377 102.364" stroke="#AD976E" stroke-width="3.99054" stroke-linecap="round" stroke-linejoin="round"/>
<path d="M114.455 279.099V130.718C114.455 116.807 108.94 103.466 99.1237 93.6302C89.307 83.794 75.9927 78.2681 62.1099 78.2681C53.5299 78.2669 45.0803 80.3717 37.4997 84.3985C29.9192 88.4253 23.4385 94.2515 18.6243 101.368" stroke="#AD976E" stroke-width="3.99054" stroke-linecap="round" stroke-linejoin="round"/>
</g>
<defs>
<clipPath id="clip0_50_408">
<rect width="229" height="281" fill="white"/>
</clipPath>
</defs>
</svg>
