<svg width="100" height="100" viewBox="0 0 100 100" fill="none" xmlns="http://www.w3.org/2000/svg">
<g id="Frame" clip-path="url(#clip0_50_611)">
<g id="Group">
<g id="Layer 2">
<g id="stroke copy">
<g id="59">
<path id="Vector" d="M50 0C22.3867 0 0 22.3867 0 50C0 77.6133 22.3867 100 50 100C77.6133 100 100 77.6133 100 50C100 22.3867 77.6133 0 50 0ZM81.2129 81.2129C73.4705 88.9318 63.1315 93.4915 52.2107 94.0035C41.2898 94.5155 30.5696 90.9431 22.139 83.9824C13.7083 77.0217 8.17132 67.1715 6.60693 56.3512C5.04254 45.5308 7.56284 34.5157 13.6767 25.4522C19.7906 16.3886 29.06 9.92614 39.6786 7.32397C50.2972 4.72181 61.5043 6.16642 71.116 11.3763C80.7276 16.5862 88.0552 25.1881 91.6708 35.5057C95.2864 45.8234 94.931 57.1176 90.6738 67.1875C88.4567 72.4304 85.2437 77.1935 81.2129 81.2129Z" fill="#AD976E"/>
<path id="Vector_2" d="M67.0742 63.6563V59.498C67.0788 58.1451 66.8169 56.8044 66.3034 55.5527C65.7899 54.3009 65.0349 53.1626 64.0815 52.2026C63.1281 51.2427 61.9949 50.4799 60.7467 49.9579C59.4984 49.4358 58.1596 49.1648 56.8067 49.1602C54.0742 49.1508 51.45 50.2274 49.5112 52.1529C48.5513 53.1063 47.7885 54.2395 47.2665 55.4877C46.7444 56.7359 46.4734 58.0748 46.4688 59.4277C46.4219 65.7656 45.6406 69.1211 44.9395 70.8633C41.3692 69.7988 37.7715 67.6094 34.0879 64.2949C33.8033 64.0293 33.4687 63.823 33.1035 63.6882C32.7383 63.5533 32.3499 63.4926 31.961 63.5096C31.5721 63.5266 31.1905 63.6209 30.8384 63.787C30.4864 63.9531 30.171 64.1878 29.9106 64.4772C29.6503 64.7666 29.4502 65.105 29.3221 65.4726C29.1941 65.8402 29.1405 66.2297 29.1647 66.6182C29.1888 67.0067 29.2902 67.3866 29.4628 67.7355C29.6354 68.0844 29.8758 68.3954 30.1699 68.6504C35.2988 73.2676 40.5469 76.082 45.8223 77.0488L45.9766 77.0762C47.3045 77.314 48.6509 77.4343 50 77.4355C55.2832 77.4355 60.5645 75.5801 65.75 71.916C65.7949 71.8867 65.836 71.8555 65.877 71.8242C67.2539 70.8395 68.5738 69.7772 69.8301 68.6426C70.3201 68.1997 70.646 67.6042 70.755 66.9527C70.864 66.3013 70.7497 65.6321 70.4305 65.0538C70.1114 64.4755 69.6063 64.022 68.997 63.7669C68.3878 63.5118 67.7102 63.4701 67.0742 63.6484V63.6563ZM56.7715 55.0527C57.9498 55.0543 59.0794 55.5232 59.9124 56.3566C60.7454 57.1899 61.2138 58.3197 61.2149 59.498V67.9375C57.7344 70.1973 54.3086 71.418 50.8887 71.5977C51.8164 68.5742 52.291 64.5566 52.3281 59.4688C52.3389 58.2962 52.8114 57.1751 53.6431 56.3484C54.4749 55.5218 55.5989 55.0563 56.7715 55.0527ZM80.7891 37.9414C72.586 31.793 63.9277 31.793 55.7305 37.9414C55.1089 38.4076 54.6979 39.1016 54.5881 39.8708C54.4782 40.64 54.6783 41.4214 55.1445 42.043C55.6107 42.6646 56.3048 43.0755 57.074 43.1854C57.8432 43.2953 58.6245 43.0951 59.2461 42.6289C65.3945 38.0156 71.1231 38.0156 77.2735 42.6289C77.5812 42.8597 77.9315 43.0277 78.3042 43.1232C78.6769 43.2187 79.0647 43.2398 79.4456 43.1854C79.8265 43.131 80.1929 43.0021 80.5239 42.8061C80.855 42.6101 81.1442 42.3508 81.375 42.043C81.6059 41.7352 81.7738 41.3849 81.8693 41.0122C81.9648 40.6396 81.9859 40.2517 81.9315 39.8708C81.8771 39.49 81.7482 39.1236 81.5522 38.7925C81.3562 38.4614 81.0969 38.1722 80.7891 37.9414ZM40.7539 42.6289C41.3755 43.0951 42.1569 43.2953 42.9261 43.1854C43.6952 43.0755 44.3893 42.6646 44.8555 42.043C45.3217 41.4214 45.5219 40.64 45.412 39.8708C45.3021 39.1016 44.8911 38.4076 44.2695 37.9414C36.0664 31.793 27.4082 31.793 19.2109 37.9414C18.9032 38.1722 18.6439 38.4614 18.4478 38.7925C18.2518 39.1236 18.1229 39.49 18.0685 39.8708C17.9586 40.64 18.1588 41.4214 18.625 42.043C19.0912 42.6646 19.7852 43.0755 20.5544 43.1854C21.3236 43.2953 22.105 43.0951 22.7266 42.6289C28.877 38.0156 34.6055 38.0156 40.7539 42.6289Z" fill="#AD976E"/>
</g>
</g>
</g>
</g>
</g>
<defs>
<clipPath id="clip0_50_611">
<rect width="100" height="100" fill="white"/>
</clipPath>
</defs>
</svg>
