<svg width="100" height="100" viewBox="0 0 100 100" fill="none" xmlns="http://www.w3.org/2000/svg">
<g id="Frame" clip-path="url(#clip0_50_622)">
<g id="Group">
<path id="Vector" d="M49.9999 19.4347C33.1462 19.4347 19.4347 33.1456 19.4347 49.9999C19.4347 66.8542 33.1462 80.5651 49.9999 80.5651C66.8536 80.5651 80.5651 66.8536 80.5651 49.9999C80.5651 33.1462 66.8536 19.4347 49.9999 19.4347ZM49.9999 74.3151C45.1908 74.3151 40.4897 72.8891 36.4911 70.2173C32.4925 67.5455 29.3759 63.748 27.5355 59.3049C25.6952 54.8619 25.2137 49.9729 26.1519 45.2562C27.0901 40.5395 29.4059 36.207 32.8064 32.8064C36.207 29.4059 40.5395 27.0901 45.2562 26.1519C49.9729 25.2137 54.8619 25.6952 59.3049 27.5355C63.748 29.3759 67.5455 32.4925 70.2173 36.4911C72.8891 40.4897 74.3151 45.1908 74.3151 49.9999C74.3078 56.4465 71.7437 62.6269 67.1853 67.1853C62.6269 71.7437 56.4465 74.3078 49.9999 74.3151ZM97.5739 60.8149L94.3749 50.42C94.2783 50.1484 94.2783 49.8518 94.3749 49.5802L97.5741 39.1852C98.0506 37.6755 98.0437 36.0547 97.5545 34.5491C97.0652 33.0434 96.1181 31.7281 94.8452 30.7868L86.1468 24.2577C85.9088 24.0947 85.7344 23.8547 85.6528 23.578L82.1313 13.287C81.6294 11.7855 80.6711 10.4781 79.3903 9.54758C78.1094 8.61702 76.57 8.10967 74.9868 8.09638L64.1116 7.92665C63.8235 7.93467 63.5414 7.84298 63.313 7.66708L54.4153 1.4122C53.1267 0.492288 51.583 -0.00219727 49.9997 -0.00219727C48.4164 -0.00219727 46.8727 0.492288 45.5841 1.4122L36.687 7.66708C36.4585 7.84298 36.1763 7.93466 35.888 7.92665L25.013 8.09638C23.4298 8.10967 21.8904 8.61702 20.6095 9.54758C19.3286 10.4781 18.3704 11.7855 17.8684 13.287L14.3468 23.5774C14.2652 23.854 14.0908 24.0939 13.853 24.2569L5.15478 30.786C3.88187 31.7273 2.93467 33.0426 2.44544 34.5482C1.95621 36.0539 1.94937 37.6747 2.42587 39.1845L5.62489 49.5798C5.72134 49.8514 5.72134 50.148 5.62489 50.4196L2.42567 60.8147C1.94917 62.3245 1.95601 63.9453 2.44524 65.4509C2.93448 66.9566 3.88167 68.2719 5.15458 69.2132L13.853 75.7421C14.0909 75.905 14.2653 76.145 14.3468 76.4216L17.8684 86.7128C18.3704 88.2143 19.3286 89.5216 20.6095 90.4522C21.8904 91.3828 23.4298 91.8901 25.013 91.9034L35.8876 92.0731C36.1758 92.0651 36.458 92.1567 36.6866 92.3325L45.5845 98.5876C46.873 99.5074 48.4167 100.002 49.9999 100.002C51.5831 100.002 53.1268 99.5074 54.4153 98.5876L63.3128 92.3327C63.5413 92.1568 63.8235 92.0651 64.1118 92.0731L74.9868 91.9034C76.57 91.8901 78.1095 91.3828 79.3903 90.4522C80.6711 89.5216 81.6293 88.2142 82.1311 86.7126L85.6528 76.4223C85.7344 76.1458 85.9088 75.9059 86.1466 75.7429L94.8448 69.2138C96.1179 68.2725 97.0652 66.9572 97.5545 65.4514C98.0437 63.9457 98.0506 62.3247 97.5739 60.8149ZM91.0936 64.2153L82.3954 70.7444C81.1534 71.6582 80.2257 72.9351 79.7405 74.3987L76.2186 84.6889C76.1323 84.9724 75.956 85.2199 75.7163 85.3941C75.4767 85.5683 75.1867 85.6596 74.8905 85.6542L64.0151 85.8237C62.4734 85.8332 60.9726 86.3209 59.7198 87.2196L50.8212 93.4745C50.5846 93.653 50.2963 93.7496 49.9999 93.7496C49.7035 93.7496 49.4152 93.653 49.1786 93.4745L40.2808 87.2192C39.028 86.3206 37.5272 85.8329 35.9854 85.8235L25.1104 85.654C24.8142 85.6594 24.5243 85.5681 24.2847 85.3939C24.045 85.2197 23.8686 84.9722 23.7823 84.6888L20.2606 74.3985C19.7754 72.9349 18.8476 71.658 17.6056 70.7442L8.90614 64.2153C8.66309 64.0455 8.48201 63.8011 8.39038 63.5192C8.29874 63.2372 8.30153 62.9331 8.39833 62.6528L11.5975 52.2579C12.0651 50.7886 12.0651 49.2104 11.5975 47.7411L8.39833 37.3462C8.30153 37.0659 8.29874 36.7618 8.39038 36.4798C8.48201 36.1979 8.66309 35.9535 8.90614 35.7837L17.6046 29.2546C18.8465 28.3407 19.7741 27.0639 20.2593 25.6003L23.7811 15.31C23.8675 15.0266 24.0438 14.7791 24.2835 14.6049C24.5231 14.4307 24.8131 14.3394 25.1093 14.3448L35.9839 14.1751C37.5262 14.1662 39.0276 13.6785 40.2808 12.7794L49.1796 6.52528C49.4161 6.3467 49.7043 6.25008 50.0007 6.25008C50.297 6.25008 50.5853 6.3467 50.8218 6.52528L59.7186 12.7802C60.9715 13.679 62.4725 14.1667 64.0143 14.1759L74.8893 14.3456C75.1856 14.3402 75.4754 14.4316 75.7151 14.6057C75.9548 14.7799 76.1311 15.0274 76.2175 15.3108L79.7392 25.6009C80.2244 27.0645 81.152 28.3415 82.394 29.2554L91.0936 35.7845C91.3367 35.9542 91.5178 36.1986 91.6095 36.4806C91.7011 36.7626 91.6983 37.0667 91.6015 37.347L88.4022 47.7419C87.9345 49.2111 87.9345 50.7894 88.4022 52.2587L91.6015 62.6534C91.6981 62.9336 91.7008 63.2376 91.6092 63.5194C91.5176 63.8013 91.3366 64.0456 91.0936 64.2153ZM66.953 38.9481C67.2303 39.2507 67.4453 39.6049 67.5857 39.9905C67.7261 40.3761 67.7891 40.7856 67.7713 41.1956C67.7534 41.6056 67.6549 42.008 67.4815 42.38C67.3081 42.7519 67.0632 43.0861 66.7606 43.3634L47.2518 61.2438C46.6754 61.7717 45.9221 62.0644 45.1405 62.0642C45.0813 62.0642 45.022 62.0625 44.9628 62.0591C44.546 62.0353 44.1382 61.9284 43.7635 61.7444C43.3888 61.5605 43.0547 61.3034 42.7809 60.9882L32.9929 49.7186C32.7224 49.409 32.5157 49.049 32.3846 48.6594C32.2535 48.2697 32.2006 47.858 32.2289 47.4479C32.2572 47.0377 32.3661 46.6372 32.5494 46.2692C32.7328 45.9013 32.9869 45.5731 33.2973 45.3035C33.6077 45.0339 33.9683 44.8282 34.3583 44.6982C34.7483 44.5682 35.1602 44.5165 35.5702 44.5459C35.9803 44.5753 36.3805 44.6854 36.748 44.8698C37.1154 45.0542 37.4429 45.3092 37.7116 45.6204L45.395 54.4681L62.5378 38.7563C63.1487 38.1963 63.9571 37.9018 64.7851 37.9378C65.6131 37.9738 66.393 38.3372 66.953 38.9481Z" fill="#AD976E"/>
</g>
</g>
<defs>
<clipPath id="clip0_50_622">
<rect width="100" height="100" fill="white"/>
</clipPath>
</defs>
</svg>
